<svg xmlns="http://www.w3.org/2000/svg" viewBox="0 0 512 512"><path d="M376.144 94.967c-2.155-7.787-7.214-14.269-14.244-18.25-14.511-8.222-33.005-3.103-41.227 11.41-8.22 14.512-3.101 33.006 11.411 41.227a30.076 30.076 0 0014.857 3.922c10.55 0 20.81-5.518 26.369-15.333 3.982-7.03 4.989-15.189 2.834-22.976zm-15.929 15.558c-4.132 7.291-13.424 9.858-20.713 5.733-7.29-4.13-9.862-13.422-5.733-20.713 2.794-4.932 7.949-7.704 13.249-7.704 2.536 0 5.105.635 7.464 1.971 3.532 2 6.073 5.256 7.156 9.169a15.104 15.104 0 01-1.423 11.544zM452.456 181.697c-2.155-7.786-7.213-14.268-14.244-18.249-14.512-8.224-33.005-3.102-41.225 11.41-3.982 7.03-4.989 15.189-2.834 22.976 2.155 7.787 7.213 14.269 14.244 18.25a30.052 30.052 0 0014.856 3.923c10.548 0 20.809-5.519 26.369-15.333h.001c3.981-7.031 4.988-15.19 2.833-22.977zm-15.93 15.56c-4.129 7.291-13.419 9.863-20.712 5.732a15.093 15.093 0 01-7.156-9.169 15.104 15.104 0 011.423-11.544c2.794-4.932 7.949-7.704 13.249-7.704 2.535 0 5.105.635 7.463 1.972 3.532 2 6.073 5.256 7.156 9.169a15.1 15.1 0 01-1.423 11.544zM304.72 154.783c-7.03-3.981-15.191-4.987-22.977-2.833-7.786 2.155-14.268 7.213-18.249 14.244-8.221 14.512-3.103 33.006 11.41 41.226a30.053 30.053 0 0014.857 3.923c10.548 0 20.809-5.519 26.369-15.333h.001c8.22-14.512 3.101-33.006-11.411-41.227zm-1.686 33.809c-4.131 7.29-13.423 9.862-20.713 5.733-7.291-4.13-9.862-13.422-5.732-20.713 2-3.532 5.256-6.073 9.169-7.156a15.108 15.108 0 0111.543 1.423c7.29 4.13 9.862 13.422 5.732 20.713h.001zM366.562 232.249c-14.51-8.223-33.005-3.103-41.227 11.41-8.22 14.512-3.101 33.006 11.411 41.227a30.076 30.076 0 0014.857 3.922c10.549 0 20.809-5.519 26.369-15.333 8.222-14.512 3.103-33.006-11.41-41.226zm-1.686 33.808c-4.132 7.291-13.424 9.859-20.713 5.733-7.29-4.13-9.862-13.422-5.733-20.713 2.794-4.932 7.949-7.704 13.249-7.704 2.536 0 5.105.634 7.464 1.971 7.291 4.13 9.862 13.422 5.733 20.713z"/><circle cx="284.64" cy="125.76" r="8.529"/><circle cx="431.83" cy="258.34" r="8.529"/><circle cx="404.63" cy="285.54" r="8.529"/><circle cx="286.66" cy="238.06" r="8.529"/><circle cx="378.25" cy="158.37" r="8.529"/><path d="M504.359 133.988a12.559 12.559 0 00-8.15-7.992 12.613 12.613 0 00-11.289 1.945c-5.244 3.931-11.49 6.01-18.062 6.01-14.82 0-27.319-10.591-29.719-25.183-.622-3.788-3.993-6.51-7.821-6.293h-.116c-16.615 0-30.131-13.517-30.131-30.132 0-6.081 1.801-11.94 5.21-16.945a12.434 12.434 0 001.286-11.541 12.553 12.553 0 00-8.866-7.665c-46.076-10.625-94.942 1.528-130.712 32.513a7.526 7.526 0 009.854 11.376c31.258-27.074 73.629-38.151 114.018-29.972-3.831 6.763-5.84 14.377-5.84 22.234 0 23.048 17.345 42.12 39.668 44.847 5.74 18.752 23.027 31.811 43.171 31.811 8.692 0 17.007-2.427 24.249-7.049 10.718 35.003 6.589 73.082-11.492 105.002-36.313 64.109-118.016 86.722-182.12 50.411a128.86 128.86 0 01-4.655-2.785c-8.969-35.58-30.797-66.099-60.233-86.309-6.393-30.671-2.13-63.69 14.488-93.028.242-.428.487-.854.733-1.28a7.526 7.526 0 00-13.02-7.55c-.272.469-.542.94-.81 1.413-16.147 28.508-21.816 60.142-18.256 90.429-20.163-10.237-42.955-16.015-67.073-16.015C66.692 182.24 0 248.932 0 330.909c0 81.976 66.692 148.668 148.668 148.668 36.157 0 71.008-13.135 98.131-36.986a7.524 7.524 0 00.682-10.62 7.524 7.524 0 00-10.621-.682c-24.375 21.433-55.695 33.237-88.192 33.237-73.677 0-133.618-59.941-133.618-133.618S74.991 197.29 148.668 197.29s133.618 59.941 133.618 133.618c0 23.476-6.171 46.562-17.847 66.762a7.525 7.525 0 002.75 10.281 7.524 7.524 0 0010.281-2.749c12.998-22.486 19.868-48.177 19.868-74.293 0-5.787-.344-11.495-.991-17.113 21.329 10.784 44.172 15.948 66.753 15.948 51.851 0 102.284-27.125 129.612-75.372 20.728-36.599 24.974-80.477 11.647-120.384z"/><path d="M110.012 227.98c-16.678 0-30.247 13.569-30.247 30.247 0 16.678 13.569 30.247 30.247 30.247 16.678 0 30.247-13.569 30.247-30.247s-13.569-30.247-30.247-30.247zm0 45.444c-8.38 0-15.197-6.817-15.197-15.197s6.818-15.197 15.197-15.197 15.197 6.817 15.197 15.197-6.817 15.197-15.197 15.197zM211.157 263.822c-16.678 0-30.247 13.569-30.247 30.247 0 16.678 13.569 30.247 30.247 30.247 16.678 0 30.247-13.569 30.247-30.247 0-16.678-13.569-30.247-30.247-30.247zm0 45.444c-8.38 0-15.197-6.817-15.197-15.197s6.818-15.197 15.197-15.197 15.197 6.817 15.197 15.197-6.818 15.197-15.197 15.197zM95.668 328.816c-16.678 0-30.247 13.569-30.247 30.247 0 16.678 13.569 30.247 30.247 30.247 16.678 0 30.247-13.569 30.247-30.247 0-16.678-13.569-30.247-30.247-30.247zm0 45.444c-8.38 0-15.197-6.817-15.197-15.197s6.818-15.197 15.197-15.197c8.38 0 15.197 6.817 15.197 15.197s-6.817 15.197-15.197 15.197zM176.669 373.831c-16.678 0-30.247 13.569-30.247 30.247 0 16.678 13.569 30.247 30.247 30.247s30.247-13.569 30.247-30.247c0-16.678-13.569-30.247-30.247-30.247zm0 45.444c-8.38 0-15.197-6.817-15.197-15.197s6.818-15.197 15.197-15.197 15.197 6.817 15.197 15.197-6.817 15.197-15.197 15.197z"/><circle cx="52.903" cy="321.55" r="8.529"/><circle cx="246.32" cy="364.36" r="8.529"/><circle cx="159.61" cy="226.98" r="8.529"/><circle cx="110.01" cy="418.27" r="8.529"/><circle cx="176.67" cy="258.23" r="8.529"/></svg>